<?xml version="1.0" encoding="UTF-8"?> <svg xmlns="http://www.w3.org/2000/svg" width="87" height="87"><g fill="none" fill-rule="evenodd"><circle fill="#FFF" cx="43.5" cy="43.5" r="43.5"></circle><path d="M7.97510792,19.3905795 C4.18512125,21.4715947 -0.0239095084,26.0477652 4.06575815e-20,33.2396838 C0.0357326279,44.0343053 6.88373428,52.7844068 14.1608495,50.6875242 C18.6092234,49.4070215 18.9817931,43.4725978 19.8284016,38.0808407 C20.711415,32.4478984 23.6199374,29.5536768 22.8809946,25.1425276 C21.6904756,18.0331198 13.2879055,16.4733501 7.97510792,19.3905795 L7.97510792,19.3905795 Z M28,29 L28,30.7357612 C26.7713971,31.0733844 25.4169417,31.4898686 24,32 C24.249945,31.4019715 24.4849285,30.8154436 24.6882288,30.2280942 C25.8684268,29.7647864 26.9843784,29.354874 28,29 L28,29 Z M25.0107965,1.78399061 C24.8416639,0.655851662 26.6963891,-0.0983580511 28,0.0104069286 L28,26.8928228 L27.7348345,27 C27.697568,26.3871054 27.6588682,25.7742107 27.6194517,25.16211 C27.1120539,25.2938982 26.5165065,25.4606183 25.8535928,25.6654458 C25.8306596,25.37964 25.7962597,25.0874829 25.7489599,24.7873869 C25.7066768,24.5087262 25.6543603,24.2372107 25.5941606,23.9712526 C26.3194241,23.6687748 26.9586879,23.4171069 27.4861523,23.216249 C26.9214214,15.2986348 26.102275,7.78591212 25.0107965,1.78399061 L25.0107965,1.78399061 Z M29,32 L29,57 C28.5506884,56.782982 28.2390488,56.4340359 28.2521902,55.9664325 C28.4092616,49.0640125 28.330413,40.7712724 28,32.3637783 C28.3335419,32.2373146 28.6664581,32.1155347 29,32 L29,32 Z M29,28 L29,29.6568699 C28.6840528,29.7590007 28.3495204,29.8736223 28,30 L28,28.4474651 C28.3519185,28.2858193 28.6864508,28.1359295 29,28 L29,28 Z M28,0 C28.4982014,0.0494374059 28.8998801,0.280676885 29,0.74076371 L29,26.5295473 C28.690048,26.6714805 28.3555156,26.8277665 28,27 L28,0 Z M29,57.7404459 L29,32.2428344 C29.2365457,32.1584395 29.4730914,32.0780255 29.7121402,32 C29.6220275,35.8710191 29.5826033,39.7492038 29.5901126,43.5151274 C29.6001252,48.3335987 29.6864831,52.9116242 29.8416771,57.0039809 L29.8423029,57.0039809 C29.8554443,57.3694268 29.9105131,57.7006369 30,58 C29.6433041,57.9729299 29.2928661,57.8853503 29,57.7404459 L29,57.7404459 Z M40,29.0461428 C38.6847826,28.5356197 37.5519788,28.1377583 36.6966276,27.8517709 L36.7441472,26.7606065 C37.1641583,17.5436157 37.9543618,8.62758153 39.1684086,1.71109622 C39.4067726,0.0361391896 34.8479654,-0.71467645 34.6540552,0.879920459 C33.3878902,8.08869601 32.5723941,17.2087819 32.1470178,26.5478885 L32.1079292,27.4428796 C31.5346293,27.6177811 30.4378484,27.967584 29,28.4915004 L29,30.2680894 C30.2860925,29.9182865 31.3368868,29.692963 32.0236204,29.5606052 C31.6725892,39.1526098 31.7178094,48.8722452 32.0933668,56.8704408 C32.1677118,58.5556398 36.7633082,58.2531076 36.6774666,56.6388146 C36.3111065,48.8541248 36.2712514,39.3046638 36.6199833,29.794595 C37.5220875,29.9970709 38.6824833,30.2885733 40,30.695101 L40,29.0461428 Z M40,23.1864058 L40,25 C39.6593794,24.9557158 39.325811,24.9176107 39,24.8867147 C39.0232722,24.2564367 39.0472496,23.6271885 39.0726375,23 C39.3751763,23.0576725 39.6847673,23.1204943 40,23.1864058 L40,23.1864058 Z M29,1 C29.0103298,1.03323851 29.0182757,1.06725002 29.0238379,1.10280749 C29.8049265,4.87421928 30.462058,9.18440418 31,13.7813679 C30.6360747,17.5867912 30.3547874,21.5815967 30.1529599,25.6251005 C29.8073103,25.7356379 29.4203417,25.860089 29,26 L29,1 Z M40,24.8468799 L40,23 C40.2080395,23.045097 40.4188999,23.0922916 40.6325811,23.1415836 C40.7348378,23.7666492 40.8596615,24.3833246 41,25 C40.6614951,24.941269 40.3272214,24.8909282 40,24.8468799 L40,24.8468799 Z M43,30.3601657 L43,32 C41.9450549,31.5516425 40.9340659,31.1743119 40,30.8582421 L40,29 C40.9230769,29.3941995 41.9324961,29.847884 43,30.3601657 L43,30.3601657 Z M43.8169546,18 L43.8169546,24 C43.2679546,22.5618099 42.9889546,21.1300835 43.3359546,19.4923243 C43.4489546,18.9647186 43.6109546,18.4678158 43.8169546,18 L43.8169546,18 Z M43,23.5692601 C43.7574295,26.0279114 45.165441,28.5016368 45.7392512,32.0805256 C46.603528,37.4714697 46.9850129,43.4066652 51.5295896,44.6879566 C58.9669612,46.7832448 65.9626968,38.0331752 66,27.2401797 C66.0244309,20.0474939 61.7228331,15.47134 57.8502078,13.3911257 C52.8172988,10.6849432 45.0712569,11.8305684 43,17.6776999 L43,23.5692601 Z M43.1825,31.7683102 L43.1825,30 L43.3045,30.0497846 C43.4965,30.6711345 43.6715,31.3202489 43.8175,32 C43.6045,31.9205361 43.3925,31.8429871 43.1825,31.7683102 L43.1825,31.7683102 Z" transform="translate(10 15)" fill="#1E1E1E"></path></g></svg> 