<?xml version="1.0" encoding="UTF-8"?> <svg xmlns="http://www.w3.org/2000/svg" width="87" height="87"><g fill="none" fill-rule="evenodd"><circle fill="#FFF" cx="43.5" cy="43.5" r="43.5"></circle><path d="M43.5,76 L46.8948686,76 C48.2097935,76 49.2869212,74.9300163 49.2869212,73.6222584 L49.5090738,66.8744454 C49.5090738,66.4851485 49.5387985,66.1012909 49.5927722,65.7244266 C49.6569149,65.3879684 49.2783166,65.3195889 49.1163955,65.5511468 C47.785826,67.4393533 47.0638298,69.5000627 46.8205569,72.6960271 C46.2487484,69.0641434 46.3293179,65.0499561 50.7755006,61.0279985 C51.415363,60.4459957 52.5816646,59.4770272 53.4507196,58.0154155 C54.8086671,55.8264945 55.9178661,53.3174333 56,50.7213435 C56,49.6987592 55.4673029,48.7624264 54.5294118,47.9574132 C53.7182416,48.2184986 52.8554443,48.345156 51.9942115,48.3335004 C50.9953066,48.3187367 50.0034418,48.1221456 49.1054443,47.738288 C47.8703066,47.209901 46.7845745,46.3403935 46.0391114,45.1118937 C45.2185544,45.0380749 44.3698373,45 43.5,45 C42.6262516,45 41.7736233,45.038852 40.9499374,45.1126708 C40.2044743,46.3403935 39.1187422,47.209901 37.8836045,47.738288 C36.985607,48.1229227 35.9945244,48.3187367 34.9956195,48.3335004 C34.1367334,48.345156 33.2762829,48.2192756 32.4674593,47.9597443 C31.5303504,48.7647575 31,49.6995363 31,50.7213435 C31.0985607,53.8497055 32.689612,56.852187 34.4097309,59.3208422 C35.7207447,61.2012784 37.4901439,63.8509838 37.4901439,66.8744454 L37.7122966,73.6222584 C37.7122966,74.9300163 38.7894243,76 40.1051314,76 L43.5,76 Z M43.4995794,36.5413284 C40.7859861,36.5413284 40.6247436,39.8992139 39.4016602,43.0973847 C37.9009251,47.0212495 31.8327011,46.8343988 30.3044367,43.3354061 C29.0813534,40.5256677 28.2515444,35.8629286 30.0047616,32.8392035 C31.058737,31.0807911 32.0340576,30.2853188 34.1836954,28.2268598 C39.3528941,23.2819063 38.6056728,15.81253 37.988232,12.8143903 C37.9284543,16.471547 37.4171975,20.1697954 35.7890415,23.1640585 C35.6325183,23.4579026 35.1802528,23.3516845 35.2014896,23.0058944 C35.3344163,20.6659964 34.6021394,18.1392477 33.3869215,13.3772683 C32.9322963,11.6056756 33.9571694,10 36.119392,10 L40.4690069,10 L44.3120843,10 C46.2210383,10 47.3937825,11.2521323 47.6399723,13.0307029 C48.4776468,18.4067311 48.8724943,20.4613135 50.3630043,23.4548013 C51.9235171,26.5878457 55.354443,29.7751621 56.9951838,32.8392035 C58.748401,35.8629286 57.918592,40.5256677 56.6962952,43.3354061 C55.1672443,46.8343988 49.0990203,47.0212495 47.5982852,43.0973847 C46.3744153,39.8992139 46.2139593,36.5413284 43.4995794,36.5413284 L43.4995794,36.5413284 Z M31.3349477,76 C30.410992,75.9867709 29.9668944,75.3642271 29.9710526,74.5339092 L29.9710526,70.8406677 C29.9710526,68.3621649 29.8962047,66.2182794 28.9789021,64.5911054 C27.3239318,61.8923777 27.7813357,57.4318509 30.2454949,56 L30.2904037,56.1003852 C31.0239131,57.7034357 31.9844612,59.2014319 32.9799383,60.5461266 C33.6211353,61.4137971 34.3746042,62.4565581 34.9467748,63.5888098 L35,63.6946422 C34.8727586,64.0090269 34.7238944,64.3101825 34.5517442,64.5911054 C33.6344416,66.2182794 33.5604254,68.3621649 33.5604254,70.8406677 L33.5604254,74.5339092 C33.5637519,75.3642271 33.1196544,75.9867709 32.1956986,76 L31.3349477,76 Z" fill="#1E1E1E"></path></g></svg> 