<?xml version="1.0" encoding="UTF-8"?> <svg xmlns="http://www.w3.org/2000/svg" width="87" height="87"><g fill="none" fill-rule="evenodd"><circle fill="#FFF" cx="43.5" cy="43.5" r="43.5"></circle><g fill="#1E1E1E"><path d="M28.4546199,23.3591992 C28.4546199,22.8598587 28.8579869,22.4549902 29.3556553,22.4549902 C29.8532834,22.4549902 30.2566504,22.8598587 30.2566504,23.3591992 C30.2566504,23.8585801 29.8532834,24.2634083 29.3556553,24.2634083 C28.8579869,24.2634083 28.4546199,23.8585801 28.4546199,23.3591992 M26.7652037,22.7941039 C26.2675756,22.7941039 25.8642086,22.3892758 25.8642086,21.8898949 C25.8642086,21.3905139 26.2675756,20.9856858 26.7652037,20.9856858 C27.2628319,20.9856858 27.6662391,21.3905139 27.6662391,21.8898949 C27.6662391,22.3892758 27.2628319,22.7941039 26.7652037,22.7941039 M30.2566504,19.5163814 C30.7542785,19.5163814 31.1576857,19.9212096 31.1576857,20.4205905 C31.1576857,20.9199714 30.7542785,21.3247995 30.2566504,21.3247995 C29.7590222,21.3247995 29.3556553,20.9199714 29.3556553,20.4205905 C29.3556553,19.9212096 29.7590222,19.5163814 30.2566504,19.5163814 M17.0492195,21.376539 C17.0375475,21.5421781 16.9626457,21.6936402 16.8379167,21.802693 C16.3090158,22.2647133 15.8497844,22.7982641 15.4734641,23.3879972 C15.0847072,23.9970368 14.7864282,24.6630665 14.5867974,25.3671031 C14.4061234,26.0052638 14.3110975,26.6615999 14.3038931,27.3179361 C14.3022832,27.4827269 14.2366384,27.6374203 14.1199188,27.753299 C14.0031992,27.8688141 13.8486865,27.9326302 13.6848363,27.9326302 L13.6776319,27.9326302 C13.3363275,27.9290355 13.0613924,27.6470735 13.0649794,27.3042035 C13.0734669,26.5375625 13.184592,25.7714062 13.3950898,25.0274239 C13.8538785,23.4057284 14.7630843,21.9666357 16.0245016,20.8648392 L16.0248638,20.8643949 C16.1375586,20.7662474 16.281647,20.7121249 16.4309677,20.7121249 C16.6100719,20.7121249 16.7807643,20.7901178 16.8982889,20.925424 C17.0069187,21.0506328 17.0604487,21.2109404 17.0492195,21.376539 M17.3044733,34.0965353 C17.3044733,34.5958758 16.9011063,35.0007443 16.4034782,35.0007443 C15.90585,35.0007443 15.5024428,34.5958758 15.5024428,34.0965353 C15.5024428,33.5971544 15.90585,33.1923262 16.4034782,33.1923262 C16.9011063,33.1923262 17.3044733,33.5971544 17.3044733,34.0965353 M16.6287068,43.1534085 C16.1311189,43.1534085 15.7277117,42.7485804 15.7277117,42.2491995 C15.7277117,41.7498185 16.1311189,41.3450308 16.6287068,41.3450308 C17.1263752,41.3450308 17.5297422,41.7498185 17.5297422,42.2491995 C17.5297422,42.7485804 17.1263752,43.1534085 16.6287068,43.1534085 M18.4307776,45.0747972 C18.4307776,45.5741781 18.0273703,45.9790063 17.5297422,45.9790063 C17.032114,45.9790063 16.6287068,45.5741781 16.6287068,45.0747972 C16.6287068,44.5754163 17.032114,44.1706285 17.5297422,44.1706285 C18.0273703,44.1706285 18.4307776,44.5754163 18.4307776,45.0747972 M14.6014477,37.8263421 C14.1038195,37.8263421 13.7004123,37.421514 13.7004123,36.922133 C13.7004123,36.4227521 14.1038195,36.017924 14.6014477,36.017924 C15.0990356,36.017924 15.5024428,36.4227521 15.5024428,36.922133 C15.5024428,37.421514 15.0990356,37.8263421 14.6014477,37.8263421 M13.7004123,44.9617862 C13.2027842,44.9617862 12.799377,44.5569581 12.799377,44.0576176 C12.799377,43.5582366 13.2027842,43.1534085 13.7004123,43.1534085 C14.1980405,43.1534085 14.6014477,43.5582366 14.6014477,44.0576176 C14.6014477,44.5569581 14.1980405,44.9617862 13.7004123,44.9617862 M13.4373102,29.239244 C13.5186114,29.0946481 13.6510278,28.9904825 13.8104105,28.9460132 C13.865148,28.9310689 13.9210929,28.9229909 13.9770379,28.9229909 C14.2539451,28.9229909 14.4990564,29.1104405 14.5735155,29.3781853 C14.6653215,29.7081709 14.4720901,30.0518891 14.1429005,30.1439781 C14.0885655,30.1589628 14.0325803,30.1665965 13.9766354,30.1665965 C13.6997281,30.1665965 13.4542144,29.9795911 13.3801578,29.711806 C13.3355226,29.5518619 13.3560089,29.3838399 13.4373102,29.239244 M12.3488794,34.0965353 C12.3488794,33.5971544 12.7522866,33.1923262 13.2499148,33.1923262 C13.7475027,33.1923262 14.1509099,33.5971544 14.1509099,34.0965353 C14.1509099,34.5958758 13.7475027,35.0007443 13.2499148,35.0007443 C12.7522866,35.0007443 12.3488794,34.5958758 12.3488794,34.0965353 M11.3651743,26.7874549 C11.4878104,27.1079085 11.328307,27.4675403 11.0088977,27.590568 C10.9358875,27.6186794 10.8608247,27.632008 10.7870096,27.632008 C10.5379943,27.632008 10.3031866,27.4802631 10.2086035,27.2329961 C9.82560204,26.2318108 9.77094505,25.1538847 10.0505892,24.115662 C10.3054405,23.169609 10.8236355,22.3257828 11.5491084,21.6754244 C11.8042817,21.4466963 12.1958559,21.46883 12.4237812,21.724902 C12.6516662,21.9809337 12.6296103,22.3738872 12.3744772,22.6026557 C11.8285915,23.0919795 11.438587,23.7273533 11.246563,24.4401545 C11.0359042,25.2221841 11.0769171,26.0339002 11.3651743,26.7874549 M8.51954953,20.0815171 C8.02192139,20.0815171 7.61851417,19.676689 7.61851417,19.1773081 C7.61851417,18.6779272 8.02192139,18.2731394 8.51954953,18.2731394 C9.01717768,18.2731394 9.4205849,18.6779272 9.4205849,19.1773081 C9.4205849,19.676689 9.01717768,20.0815171 8.51954953,20.0815171 M6.26698124,17.5949927 C5.7693531,17.5949927 5.36598613,17.1901646 5.36598613,16.6907837 C5.36598613,16.1914028 5.7693531,15.7865746 6.26698124,15.7865746 C6.76460939,15.7865746 7.16801661,16.1914028 7.16801661,16.6907837 C7.16801661,17.1901646 6.76460939,17.5949927 6.26698124,17.5949927 M6.89215578,7.97253952 C7.19949066,7.82168319 7.57049812,7.94923454 7.72090546,8.25757116 L12.3450961,17.7379326 C12.4954632,18.0462693 12.3683193,18.4186239 12.0610649,18.569561 C11.9734044,18.6125763 11.8805519,18.6329732 11.7891484,18.6329732 C11.5600559,18.6329732 11.3398582,18.5049372 11.2323152,18.2845294 L6.60812457,8.8041679 C6.45771723,8.49579089 6.58490139,8.12347664 6.89215578,7.97253952 M25.1884422,41.4430975 C25.6860301,41.4430975 26.0894373,41.8479256 26.0894373,42.3473066 C26.0894373,42.8466471 25.6860301,43.2514752 25.1884422,43.2514752 C24.6907738,43.2514752 24.2874068,42.8466471 24.2874068,42.3473066 C24.2874068,41.8479256 24.6907738,41.4430975 25.1884422,41.4430975 M25.1884422,37.3742174 C25.6860301,37.3742174 26.0894373,37.7790455 26.0894373,38.2784264 C26.0894373,38.7777669 25.6860301,39.1826355 25.1884422,39.1826355 C24.6907738,39.1826355 24.2874068,38.7777669 24.2874068,38.2784264 C24.2874068,37.7790455 24.6907738,37.3742174 25.1884422,37.3742174 M27.7225463,39.3521519 C28.2201744,39.3521519 28.6235414,39.7569397 28.6235414,40.256361 C28.6235414,40.7557015 28.2201744,41.1605297 27.7225463,41.1605297 C27.2249181,41.1605297 26.8215109,40.7557015 26.8215109,40.256361 C26.8215109,39.7569397 27.2249181,39.3521519 27.7225463,39.3521519 M39.0578746,31.4648495 C39.0549768,31.4577813 39.0534473,31.4535807 39.0507909,31.4464317 L34.5699643,19.1829223 C34.5456544,19.1201967 33.6579411,16.8725787 31.7833432,16.2910851 L27.364539,15.2092412 C25.7724026,16.4570472 23.8238688,17.1335379 21.7716961,17.1335379 C19.3387356,17.1335379 17.0514332,16.1827593 15.3311064,14.4563731 C13.6107394,12.7299466 12.663298,10.4345876 12.663298,7.99309799 C12.663298,7.27108785 12.7468129,6.56208326 12.9080067,5.87658561 C12.8941211,5.85424999 12.8813624,5.83110656 12.8703344,5.80699378 C11.3710103,2.53331031 7.49716599,1.09413682 4.23485208,2.59874197 C2.65458891,3.3276184 1.45169241,4.63043553 0.847849398,6.26723688 C0.244006383,7.90399784 0.311502533,9.67877114 1.03782067,11.2646408 L10.0414126,30.6977238 C10.0794874,30.7798769 10.0991687,30.8693002 10.0991687,30.9598544 L10.0991687,47.5139442 L31.2710648,47.5744887 L31.2710648,36.9477806 L25.4780276,34.1412873 L19.4172195,31.2831757 C17.2597576,30.2657537 16.3293411,27.6766389 17.3431518,25.5115375 C17.8342999,24.4627325 18.703016,23.6686264 19.7893136,23.2755517 C20.875571,22.8823963 22.0493681,22.9373669 23.0945321,23.4302047 L28.9051979,26.1988527 L31.2710648,27.3260948 L31.2710648,24.8008769 L31.2710648,24.4348635 C31.2710648,24.0915492 31.5483745,23.8132223 31.8904838,23.8132223 C32.2325931,23.8132223 32.5099431,24.0915492 32.5099431,24.4348635 L32.5099431,27.9163934 L35.1443054,29.1715909 C35.4533709,29.3188525 35.5849019,29.6896319 35.4381974,29.9997861 C35.3075921,30.2758512 35.000539,30.4102688 34.716548,30.3326394 C34.6815724,30.3231074 34.6468382,30.3108692 34.612909,30.2947133 L32.5099431,29.2926798 L31.8904838,28.9975507 L31.2710648,28.7023812 L27.6157679,26.960768 L22.5653896,24.5543772 C21.8220063,24.2038331 20.9846032,24.1646145 20.2095848,24.4450821 C19.4346067,24.7255093 18.8148254,25.2920587 18.4644652,26.0403222 C17.7411657,27.5849538 18.4049382,29.4321058 19.9441483,30.157953 L20.6166949,30.475135 L21.2015005,30.7509174 L26.0096252,33.0182861 L31.2710648,35.4993982 L31.8904838,35.7915385 L32.5099431,36.0836384 L33.0883896,36.3564319 L33.1871988,36.4030014 C33.2178679,36.4175014 33.2462831,36.4347075 33.2734103,36.4532869 C34.1869628,36.7105707 36.0013495,37.00469 37.5023641,35.9091539 C38.570067,35.1299113 39.157529,34.1553026 39.2484094,33.0123892 C39.3181594,32.1352413 39.0604908,31.4714331 39.0578746,31.4648495" transform="translate(23.599 22.213)"></path><path d="M21.8190505,0.314106735 C18.3825185,0.314106735 15.4534597,2.526451 14.3800193,5.60154386 C14.3094396,5.80381602 14.2464334,6.009593 14.1922498,6.21895537 C14.1371396,6.43206427 14.0911741,6.64879883 14.0539103,6.86847422 C13.9808732,7.29855939 13.9423202,7.74024671 13.9423202,8.19083706 C13.9423202,12.5340688 17.4757785,16.0675674 21.8190505,16.0675674 C23.4304197,16.0675674 24.9300778,15.5808815 26.1794035,14.7472188 C26.3637085,14.6242683 26.5425346,14.4937441 26.7154792,14.3561297 C26.8839923,14.2220202 27.0468252,14.0811427 27.2036959,13.9339405 C28.7365088,12.4959187 29.6957809,10.4534573 29.6957809,8.19083706 C29.6957809,3.84760529 26.1623226,0.314106735 21.8190505,0.314106735" transform="translate(23.599 22.213)"></path></g></g></svg> 