<?xml version="1.0" encoding="UTF-8"?> <svg xmlns="http://www.w3.org/2000/svg" width="87" height="87"><g fill="none" fill-rule="evenodd"><circle fill="#FFF" cx="43.5" cy="43.5" r="43.5"></circle><path d="M68.7090553,51.8361548 C69.0929653,56.8922414 63.3300775,62.8339482 57.5960041,62.8339482 C53.9297905,62.8339482 50.7059633,61.2559339 48.8499744,58.8728103 C51.4525962,58.1388896 53.8840264,57.1083497 56.2018938,56.1261163 C57.9256752,55.3955855 59.581658,54.6938692 61.1876392,54.1896165 C62.1130912,53.9006246 62.9809143,53.6548544 63.8114481,53.419254 C65.6038757,52.9124589 67.2547736,52.444648 68.7090553,51.8361548 M43.4693016,18.5037812 C60.5791461,18.2249591 73.4863198,30.4490611 72.6795155,41.9833116 C72.1447534,49.6250704 67.0674798,49.8327038 60.4740581,51.9005636 C55.4510234,53.4760354 49.8855992,56.9447854 43.4693016,57.4337833 C39.5132486,57.7354875 36.208063,57.1863182 33.9630792,55.0498123 C32.7350756,53.8887599 32.6452423,52.2251497 33.0528819,51.2064746 C35.9758525,43.8884545 52.6526329,43.4181012 56.3747804,38.0416658 C50.1110298,41.4341423 34.6173364,41.4044804 29.9595671,49.3504857 C28.937502,51.2047796 28.1518848,51.4564822 26.8069285,51.4039382 C19.8024773,51.0217232 14.2599352,48.8614877 14.2599352,41.9833116 C14.2599352,29.0159665 26.3594572,18.7834507 43.4693016,18.5037812 M42.9141999,59.8736883 L48.6186114,68.1078381 C49.2101549,69.1061736 51.6051432,68.0112249 51.1042805,66.8688172 L49.0686251,62.4271561 C48.9448925,62.332238 48.8228549,62.2347774 48.7042072,62.1347743 C47.7668905,61.3550895 46.968561,60.4576045 46.3414232,59.4668963 C45.4634303,59.6321556 44.5667928,59.7567356 43.6481206,59.8270768 C43.4015029,59.8457214 43.1565802,59.8618236 42.9141999,59.8736883" fill="#1E1E1E"></path></g></svg> 