<?xml version="1.0" encoding="UTF-8"?> <svg xmlns="http://www.w3.org/2000/svg" xmlns:xlink="http://www.w3.org/1999/xlink" width="87" height="87"><defs><path id="a" d="M0 0L56 0 56 49 0 49z"></path></defs><g fill="none" fill-rule="evenodd"><circle fill="#FFF" cx="43.5" cy="43.5" r="43.5"></circle><g transform="translate(15 19)"><mask id="b" fill="#fff"><use xlink:href="#a"></use></mask><path d="M55.5112267,14.4995092 C57.7609026,27.9211745 52.2056754,40.9207343 39.6516634,46.1869154 C29.5663306,50.4190302 12.8288905,50.1443851 3.95692896,43.5206463 C-1.30474069,39.5935903 -1.55356566,33.8269653 4.62978151,32.8380587 C11.9165323,31.6740428 15.7197335,30.5459704 19.1455035,27.3239597 C22.5880483,24.0853597 23.1313627,20.1573821 23.9635751,15.9695055 C24.2869543,14.3087323 23.7212736,13.2166033 22.2497581,12.4571821 C21.2302281,11.9558166 20.3346446,11.3466206 19.5508925,10.664616 C16.5957465,8.09143129 15.3283234,4.51551551 15.0226508,1.770908 C14.6265811,-0.147921035 20.0867515,-0.743292578 20.4828212,1.17553645 C20.6720028,2.8694883 21.4324566,5.05558939 23.1844827,6.58272662 C24.5870354,7.89328131 26.3791344,7.84904318 27.9522301,6.39010641 C38.3320523,-3.24551199 53.0975312,0.106448232 55.5112267,14.4995092" fill="#1E1E1E" mask="url(#b)"></path></g></g></svg> 