<?xml version="1.0" encoding="UTF-8"?> <svg xmlns="http://www.w3.org/2000/svg" xmlns:xlink="http://www.w3.org/1999/xlink" id="Layer_1" data-name="Layer 1" viewBox="0 0 87 87"><defs><style>.cls-1,.cls-2{fill:#fff;}.cls-1,.cls-4{fill-rule:evenodd;}.cls-3{mask:url(#mask);}</style><mask id="mask" x="12" y="25" width="63.02" height="36.76" maskUnits="userSpaceOnUse"><g id="mask-3"><polygon id="path-2" class="cls-1" points="12 25 75.02 25 75.02 61.76 12 61.76 12 25"></polygon></g></mask></defs><g id="Atom-_-Icon-_-Ophthalmology" data-name="Atom-/-Icon-/-Ophthalmology"><circle id="Oval" class="cls-2" cx="43.5" cy="43.5" r="43.5"></circle><g id="Group-3"><g class="cls-3"><path id="Fill-1" class="cls-4" d="M43.55,30.25c12.47,0,21.17,7.91,25,12.18-3.67,4.82-12.37,14.08-25,14.08-11.61,0-20.82-9.28-24.89-14.2C22.58,38,31.31,30.25,43.55,30.25m0-5.25C23.68,25,12,42.2,12,42.2S24.7,61.76,43.55,61.76C63.86,61.76,75,42.2,75,42.2S63.75,25,43.55,25m0,7.88A10.5,10.5,0,1,0,54,43.38a10.5,10.5,0,0,0-10.5-10.5m0,10.5a3.8,3.8,0,1,1,0-5.37,3.8,3.8,0,0,1,0,5.37"></path></g></g></g></svg> 