<?xml version="1.0" encoding="utf-8"?>
<!-- Generator: Adobe Illustrator 25.0.1, SVG Export Plug-In . SVG Version: 6.00 Build 0)  -->
<svg version="1.1" id="Layer_1" xmlns="http://www.w3.org/2000/svg" xmlns:xlink="http://www.w3.org/1999/xlink" x="0px" y="0px"
	 viewBox="0 0 131 40" style="enable-background:new 0 0 131 40;" xml:space="preserve">
<style type="text/css">
	.st0{fill-rule:evenodd;clip-rule:evenodd;fill:#1E1E1E;}
	.st1{filter:url(#Adobe_OpacityMaskFilter);}
	.st2{fill-rule:evenodd;clip-rule:evenodd;fill:#FFFFFF;}
	.st3{mask:url(#b_1_);fill-rule:evenodd;clip-rule:evenodd;fill:#1E1E1E;}
	.st4{filter:url(#Adobe_OpacityMaskFilter_1_);}
	.st5{mask:url(#b_2_);fill-rule:evenodd;clip-rule:evenodd;fill:#7A7A7A;}
	.st6{filter:url(#Adobe_OpacityMaskFilter_2_);}
	.st7{mask:url(#b_3_);fill-rule:evenodd;clip-rule:evenodd;fill:#8CC7EC;}
</style>
<g>
	<path class="st0" d="M13.7,10.4c1.4,0.6,2.5,1.6,3.6,3l-2.9,2.9c-0.5-1.1-1.2-1.9-2.1-2.5c-0.9-0.5-2-0.8-3.3-0.8
		c-1.2,0-2.2,0.2-2.8,0.7c-0.7,0.5-1,1.1-1,1.8c0,0.7,0.3,1.2,1,1.7c0.7,0.4,1.9,0.8,3.7,1.1c1.8,0.3,3.3,0.8,4.4,1.3
		c1.1,0.5,1.9,1.2,2.4,1.9c0.5,0.8,0.8,1.7,0.8,2.9c0,1.2-0.4,2.3-1.1,3.2s-1.7,1.6-2.9,2.1c-1.3,0.5-2.7,0.7-4.3,0.7
		c-2.2,0-4.1-0.3-5.5-0.9C2,28.8,0.9,27.9,0,26.6l2.5-3c0.8,1.2,1.6,2.1,2.6,2.6c1,0.5,2.2,0.7,3.7,0.7c1.3,0,2.3-0.2,3-0.6
		c0.7-0.4,1-1,1-1.8c0-0.6-0.3-1-1-1.4c-0.6-0.4-1.8-0.7-3.5-1c-1.9-0.4-3.4-0.8-4.6-1.4c-1.1-0.5-2-1.2-2.5-2
		C0.8,18,0.6,17,0.6,15.9c0-1.2,0.3-2.3,1-3.3c0.7-1,1.6-1.7,2.9-2.3c1.3-0.6,2.7-0.8,4.4-0.8C10.8,9.5,12.4,9.8,13.7,10.4
		 M30.1,18.6c0.6-0.5,0.9-1.3,0.9-2.3c0-1-0.3-1.8-0.9-2.3c-0.6-0.5-1.6-0.8-2.9-0.8h-3.6v6.2h3.6C28.5,19.4,29.5,19.1,30.1,18.6
		 M33.4,11.5c1.3,1.1,2,2.7,2,4.8c0,2-0.7,3.6-2,4.7c-1.3,1.1-3.1,1.7-5.5,1.7h-4.3v7.4h-4.2V9.8h8.5C30.2,9.8,32.1,10.4,33.4,11.5
		 M55.4,9.8v20.3h-4.2v-8.5h-8.9v8.5H38V9.8h4.2v8.3h8.9V9.8H55.4z M75.1,26.6v3.4H59.5V9.8h15.2v3.4h-11v5h8.6v3.3h-8.6v5.2H75.1z
		 M82.5,19.1h4.2c1.2,0,2.1-0.2,2.7-0.7c0.6-0.5,0.9-1.2,0.9-2.2c0-1-0.3-1.7-0.9-2.2c-0.6-0.5-1.5-0.7-2.7-0.7h-4.2V19.1z
		 M86.3,22.3h-3.8v7.8h-4.2V9.8h8.9c2.3,0,4.1,0.5,5.4,1.6c1.3,1.1,2,2.6,2,4.6c0,1.5-0.4,2.7-1.1,3.7c-0.7,1-1.7,1.7-3.1,2.1
		l5.3,8.2H91L86.3,22.3z"/>
	<defs>
		<filter id="Adobe_OpacityMaskFilter" filterUnits="userSpaceOnUse" x="98.5" y="9.8" width="25.4" height="20.3">
			<feColorMatrix  type="matrix" values="1 0 0 0 0  0 1 0 0 0  0 0 1 0 0  0 0 0 1 0"/>
		</filter>
	</defs>
	<mask maskUnits="userSpaceOnUse" x="98.5" y="9.8" width="25.4" height="20.3" id="b_1_">
		<g class="st1">
			<path id="a_1_" class="st2" d="M0,39.9h130.6V0H0V39.9z"/>
		</g>
	</mask>
	<path class="st3" d="M98.5,30.1h4.2V9.8h-4.2V30.1z M118.9,30.1l-4.4-7.3l-4.3,7.3h-4.9l7-10.2l-6.5-10h5l4.1,7.1l4.1-7.1h4.6
		l-6.5,9.9l6.9,10.4H118.9z"/>
	<defs>
		<filter id="Adobe_OpacityMaskFilter_1_" filterUnits="userSpaceOnUse" x="0.4" y="32.7" width="116.3" height="7.2">
			<feColorMatrix  type="matrix" values="1 0 0 0 0  0 1 0 0 0  0 0 1 0 0  0 0 0 1 0"/>
		</filter>
	</defs>
	<mask maskUnits="userSpaceOnUse" x="0.4" y="32.7" width="116.3" height="7.2" id="b_2_">
		<g class="st4">
			<path id="a_2_" class="st2" d="M0,39.9h130.6V0H0V39.9z"/>
		</g>
	</mask>
	<path class="st5" d="M3.8,36h3.3v3.9H5.6L5.6,39c-0.4,0.6-1,0.9-1.9,0.9c-0.6,0-1.2-0.1-1.7-0.4c-0.5-0.3-0.9-0.7-1.2-1.2
		c-0.3-0.5-0.4-1.2-0.4-1.9c0-0.8,0.1-1.4,0.4-1.9c0.3-0.5,0.7-1,1.2-1.2c0.5-0.3,1.2-0.4,1.9-0.4c0.8,0,1.5,0.1,2,0.4
		c0.5,0.3,0.9,0.8,1.2,1.4l-2,0.8c-0.1-0.6-0.5-1-1.1-1c-0.9,0-1.4,0.6-1.4,1.9c0,0.7,0.1,1.2,0.4,1.5c0.2,0.3,0.6,0.5,1.1,0.5
		c0.4,0,0.7-0.1,0.9-0.2c0.2-0.2,0.3-0.4,0.3-0.7v-0.1H3.8V36z M15.2,38.2v1.6H9.8v-7h2.2v5.4H15.2z M19.7,34.9
		c-0.2,0.3-0.3,0.8-0.3,1.5c0,0.7,0.1,1.1,0.3,1.5c0.2,0.3,0.5,0.5,1,0.5c0.4,0,0.7-0.2,1-0.5c0.2-0.3,0.3-0.8,0.3-1.5
		c0-0.7-0.1-1.2-0.3-1.5c-0.2-0.3-0.5-0.5-1-0.5C20.2,34.4,19.9,34.5,19.7,34.9 M23.2,33.7c0.6,0.6,0.9,1.5,0.9,2.6
		c0,1.1-0.3,2-0.9,2.6c-0.6,0.6-1.5,0.9-2.6,0.9c-0.7,0-1.3-0.1-1.9-0.4c-0.5-0.3-0.9-0.7-1.2-1.2c-0.3-0.5-0.4-1.2-0.4-1.9
		c0-0.7,0.1-1.4,0.4-1.9c0.3-0.5,0.7-1,1.2-1.2c0.5-0.3,1.1-0.4,1.9-0.4C21.7,32.7,22.6,33,23.2,33.7 M30.1,38.4
		c0.5,0,0.8-0.2,0.8-0.6c0-0.4-0.3-0.6-0.8-0.6h-1.4v1.3H30.1z M29.9,35.6c0.5,0,0.8-0.2,0.8-0.6c0-0.4-0.3-0.6-0.8-0.6h-1.2v1.2
		H29.9z M26.6,32.8h3.7c1.7,0,2.6,0.6,2.6,1.9c0,0.4-0.1,0.8-0.4,1.1c-0.3,0.3-0.6,0.5-1.1,0.5v0c0.6,0.1,1,0.3,1.3,0.5
		c0.3,0.3,0.4,0.7,0.4,1.1c0,0.6-0.2,1.1-0.6,1.4c-0.4,0.3-1.1,0.5-1.9,0.5h-3.9V32.8z M39.1,37l-0.4-1.4l-0.3-1.1h0l-0.3,1.1
		L37.7,37H39.1z M39.5,38.4h-2.1l-0.4,1.4h-2.2l2.3-7h2.6l2.4,7h-2.2L39.5,38.4z M49.6,38.2v1.6h-5.5v-7h2.2v5.4H49.6z M56.1,39.8
		h2.2v-7h-2.2V39.8z M67.6,39.8h-2.4l-1.9-3.5l-0.4-1h0l0,1.4v3H61v-7h2.4l1.9,3.5l0.5,1h0l0-1.4v-3h1.9V39.8z M75,33
		c0.5,0.2,0.9,0.5,1.4,0.9l-1.1,1.4c-0.3-0.3-0.6-0.6-0.9-0.7c-0.3-0.1-0.7-0.2-1.1-0.2c-0.3,0-0.5,0-0.7,0.1
		c-0.2,0.1-0.3,0.2-0.3,0.4c0,0.1,0.1,0.2,0.3,0.3c0.2,0.1,0.5,0.1,0.9,0.2c0.7,0.1,1.2,0.3,1.6,0.5c0.4,0.2,0.7,0.4,0.9,0.7
		c0.2,0.3,0.3,0.7,0.3,1.1c0,0.5-0.1,0.9-0.4,1.2c-0.3,0.3-0.6,0.6-1.1,0.8c-0.5,0.2-1,0.3-1.6,0.3c-0.8,0-1.5-0.1-1.9-0.3
		c-0.5-0.2-1-0.4-1.4-0.8l1-1.5c0.3,0.3,0.6,0.6,0.9,0.7c0.3,0.1,0.8,0.2,1.2,0.2c0.6,0,1-0.2,1-0.5c0-0.1-0.1-0.2-0.3-0.3
		c-0.2-0.1-0.5-0.2-0.9-0.2c-0.6-0.1-1-0.2-1.4-0.4c-0.4-0.1-0.7-0.4-1-0.7c-0.3-0.3-0.4-0.7-0.4-1.2c0-0.5,0.1-0.9,0.4-1.2
		c0.2-0.4,0.6-0.6,1.1-0.8c0.5-0.2,1-0.3,1.7-0.3C74,32.7,74.5,32.8,75,33 M78.7,39.8h2.2v-7h-2.2V39.8z M86.8,36h3.3v3.9h-1.5
		L88.5,39c-0.4,0.6-1,0.9-1.9,0.9c-0.6,0-1.2-0.1-1.7-0.4c-0.5-0.3-0.9-0.7-1.2-1.2c-0.3-0.5-0.4-1.2-0.4-1.9c0-0.8,0.1-1.4,0.4-1.9
		c0.3-0.5,0.7-1,1.2-1.2c0.5-0.3,1.2-0.4,1.9-0.4c0.8,0,1.5,0.1,2,0.4c0.5,0.3,0.9,0.8,1.2,1.4l-2,0.8c-0.1-0.6-0.5-1-1.1-1
		c-0.9,0-1.4,0.6-1.4,1.9c0,0.7,0.1,1.2,0.4,1.5c0.2,0.3,0.6,0.5,1.1,0.5c0.4,0,0.7-0.1,0.9-0.2c0.2-0.2,0.3-0.4,0.3-0.7v-0.1h-1.4
		V36z M99.3,32.8v7h-2.2v-2.7h-2.3v2.7h-2.2v-7h2.2v2.7h2.3v-2.7H99.3z M108.3,34.5h-2.2v5.4h-2.2v-5.4h-2.2v-1.6h6.6V34.5z
		 M115.2,33c0.5,0.2,0.9,0.5,1.4,0.9l-1.1,1.4c-0.3-0.3-0.6-0.6-0.9-0.7c-0.3-0.1-0.7-0.2-1.1-0.2c-0.3,0-0.5,0-0.7,0.1
		c-0.2,0.1-0.3,0.2-0.3,0.4c0,0.1,0.1,0.2,0.3,0.3c0.2,0.1,0.5,0.1,0.9,0.2c0.7,0.1,1.2,0.3,1.6,0.5c0.4,0.2,0.7,0.4,0.9,0.7
		c0.2,0.3,0.3,0.7,0.3,1.1c0,0.5-0.1,0.9-0.4,1.2c-0.3,0.3-0.6,0.6-1.1,0.8c-0.5,0.2-1,0.3-1.6,0.3c-0.8,0-1.5-0.1-1.9-0.3
		c-0.5-0.2-1-0.4-1.4-0.8l1-1.5c0.3,0.3,0.6,0.6,0.9,0.7c0.3,0.1,0.8,0.2,1.2,0.2c0.6,0,1-0.2,1-0.5c0-0.1-0.1-0.2-0.3-0.3
		c-0.2-0.1-0.5-0.2-0.9-0.2c-0.6-0.1-1-0.2-1.4-0.4c-0.4-0.1-0.7-0.4-1-0.7c-0.3-0.3-0.4-0.7-0.4-1.2c0-0.5,0.1-0.9,0.4-1.2
		c0.2-0.4,0.6-0.6,1.1-0.8c0.5-0.2,1-0.3,1.7-0.3C114.2,32.7,114.8,32.8,115.2,33"/>
	<defs>
		<filter id="Adobe_OpacityMaskFilter_2_" filterUnits="userSpaceOnUse" x="99.2" y="0" width="31.3" height="39.8">
			<feColorMatrix  type="matrix" values="1 0 0 0 0  0 1 0 0 0  0 0 1 0 0  0 0 0 1 0"/>
		</filter>
	</defs>
	<mask maskUnits="userSpaceOnUse" x="99.2" y="0" width="31.3" height="39.8" id="b_3_">
		<g class="st6">
			<path id="a_3_" class="st2" d="M0,39.9h130.6V0H0V39.9z"/>
		</g>
	</mask>
	<path class="st7" d="M99.2,0h5.3l26,39.8h-5.7L99.2,0z"/>
</g>
</svg>
