<?xml version="1.0" encoding="UTF-8"?>
<svg width="640" height="480" xmlns="http://www.w3.org/2000/svg" xmlns:svg="http://www.w3.org/2000/svg">
 <title>Red Thumbs up</title>
 <g>
  <title>Layer 1</title>
  <path fill="#ff0000" id="svg_1" d="m92.115,56.539c0.216,-1.638 3.234,-4.062 3.332,-5.712c0.175,-3 -3.879,-8.87 -6.664,-9.997c-4.422,-1.789 -26.896,-0.952 -26.896,-0.952c-2.196,-3.84 3.914,-13.321 5.594,-17.415c2.467,-5.999 2.051,-13.959 -1.069,-18.048c-3.81,-4.996 -10.805,-5.329 -10.949,-3.093c-1.042,16.214 -4.146,20.712 -8.302,23.918c-2.496,1.926 -4.679,3.611 -5.83,6.546c-7.083,18.038 -12.332,22.214 -15.332,22.214l-2,0l0,40.999l20.995,3.905c0,0 26.065,2.467 34.272,0c2.582,-0.774 7.039,-4.652 8.092,-7.141c0.602,-1.428 -0.233,-4.809 0.478,-6.188c1.049,-2.043 5.479,-4.602 5.475,-7.378c-0.004,-1.979 -2.311,-5.405 -2.143,-7.379c0.167,-1.976 4.288,-4.685 4.284,-6.664c-0.009,-2.076 -3.61,-5.555 -3.337,-7.615z"/>
  <path fill="#ff0000" id="svg_2" d="m20,93.999c0,2.209 -1.791,4 -4,4l-12,0c-2.209,0 -4,-1.791 -4,-4l0,-37.999c0,-2.209 1.791,-4 4,-4l12,0c2.209,0 4,1.791 4,4l0,37.999z"/>
 </g>
</svg>